<svg width="18" height="18" viewBox="0 0 18 18" fill="none" xmlns="http://www.w3.org/2000/svg">
<path d="M11.2616 0.26001C7.83869 0.26001 5.05633 3.08001 5.05633 6.52001C5.05633 7.98001 5.55676 9.30002 6.37745 10.38L0.49246 16.32C0.152171 16.68 0.152171 17.24 0.49246 17.58C0.672613 17.76 0.892801 17.84 1.11299 17.84C1.35319 17.84 1.57337 17.76 1.75353 17.58L7.63853 11.62C8.65939 12.36 9.90044 12.78 11.2416 12.78C14.6645 12.78 17.4468 9.96001 17.4468 6.52001C17.4669 3.06001 14.6845 0.26001 11.2616 0.26001ZM11.2616 11.2C8.71944 11.2 6.65769 9.10001 6.65769 6.52001C6.65769 3.94001 8.71944 1.84001 11.2616 1.84001C13.8038 1.84001 15.8655 3.94001 15.8655 6.52001C15.8655 9.10001 13.8038 11.2 11.2616 11.2ZM14.3642 6.60001C14.3242 6.94001 14.0239 7.20001 13.6837 7.20001C13.6436 7.20001 13.6236 7.20001 13.5836 7.20001C13.2033 7.14001 12.943 6.80001 12.9831 6.42001C13.1232 5.38001 11.9622 4.84001 11.9021 4.82001C11.5619 4.66001 11.4017 4.24001 11.5619 3.90001C11.722 3.56001 12.1223 3.40001 12.4826 3.54001C12.5627 3.56001 14.6445 4.52001 14.3642 6.60001ZM12.903 8.12001C13.0431 8.26001 13.1432 8.48002 13.1432 8.68002C13.1432 8.90002 13.0631 9.10001 12.903 9.24002C12.7629 9.38002 12.5427 9.48002 12.3425 9.48002C12.1423 9.48002 11.9222 9.40001 11.782 9.24002C11.6419 9.10001 11.5418 8.88002 11.5418 8.68002C11.5418 8.48002 11.6219 8.26001 11.782 8.12001C11.9222 7.98001 12.1423 7.88002 12.3425 7.88002C12.5427 7.88002 12.7429 7.96001 12.903 8.12001Z" fill="#1E0606"/>
</svg>
